<svg width="776" height="776" viewBox="0 0 776 776" fill="none" xmlns="http://www.w3.org/2000/svg">
<path d="M387.855 99.734C259.308 99.734 155.142 203.901 155.142 332.447C155.142 421.653 205.009 498.67 278.701 538.01L343.528 398.936H432.181L497.008 538.01C570.7 498.67 620.567 421.653 620.567 332.447C620.567 203.901 516.401 99.734 387.855 99.734Z" fill="#D4E3EE"/>
<path d="M548.537 648.271C536.347 634.973 465.425 624.446 385.084 624.446C304.743 624.446 238.808 634.419 226.618 647.717L341.312 401.152C356.272 405.585 369.57 407.801 385.084 407.801C400.598 407.801 419.437 405.585 434.397 401.152L548.537 648.271Z" fill="white"/>
<path d="M227.172 651.042C226.618 651.042 226.618 651.042 226.064 651.042C224.402 650.487 223.847 648.825 224.956 647.163L341.312 397.828C341.866 396.72 343.528 395.612 345.19 396.72C346.853 397.274 347.407 398.936 346.299 400.598L229.942 649.933C229.388 650.487 228.28 651.042 227.172 651.042Z" fill="#231F20"/>
<path d="M548.537 651.042C547.429 651.042 546.321 650.487 545.767 649.379L429.41 400.044C428.856 398.382 429.41 397.274 430.519 396.166C432.181 395.612 433.289 396.166 434.397 397.274L550.753 646.609C551.308 648.271 550.753 649.379 549.645 650.487C549.091 651.042 549.091 651.042 548.537 651.042Z" fill="#231F20"/>
<path d="M498.67 360.151C468.196 389.517 427.748 404.477 387.855 404.477C347.961 404.477 307.513 389.517 277.039 360.151H498.67Z" fill="white"/>
<path d="M387.855 675.975C476.597 675.975 548.537 663.572 548.537 648.271C548.537 632.971 476.597 620.567 387.855 620.567C299.112 620.567 227.172 632.971 227.172 648.271C227.172 663.572 299.112 675.975 387.855 675.975Z" fill="white"/>
<path d="M387.855 678.745C306.405 678.745 224.402 668.218 224.402 648.271C224.402 628.324 306.405 617.797 387.855 617.797C469.304 617.797 551.307 628.324 551.307 648.271C551.307 668.218 469.304 678.745 387.855 678.745ZM387.855 623.338C289.783 623.338 229.942 637.744 229.942 648.271C229.942 658.799 289.783 673.205 387.855 673.205C485.926 673.205 545.767 658.799 545.767 648.271C545.767 637.744 485.926 623.338 387.855 623.338Z" fill="#231F20"/>
<path d="M346.853 506.981H346.299C344.636 506.427 344.082 505.319 344.082 503.657L365.691 403.923C366.245 402.261 367.354 401.706 369.016 401.706C370.678 402.261 371.232 403.369 371.232 405.031L349.623 504.765C349.069 505.873 347.961 506.981 346.853 506.981Z" fill="#231F20"/>
<path d="M334.663 562.389H334.109C332.447 561.835 331.893 560.727 331.893 559.065L341.312 514.738C341.866 513.076 342.974 512.522 344.636 512.522C346.299 513.076 346.853 514.184 346.853 515.846L337.433 560.173C337.433 561.281 336.325 562.389 334.663 562.389Z" fill="#231F20"/>
<path d="M441.046 562.389C439.938 562.389 438.83 561.281 438.276 560.173L428.856 515.846C428.302 514.184 429.41 513.076 431.073 512.522C432.735 512.522 433.843 513.076 434.397 514.738L443.816 559.065C444.37 560.727 443.262 561.835 441.6 562.389C441.046 562.389 441.046 562.389 441.046 562.389Z" fill="#231F20"/>
<path d="M428.856 506.981C427.748 506.981 426.64 505.873 426.086 504.765L404.477 405.031C403.923 403.369 405.031 402.261 406.693 401.706C408.355 401.706 409.464 402.261 410.018 403.923L431.627 503.657C432.181 505.319 431.073 506.427 429.41 506.981C429.41 506.981 429.41 506.981 428.856 506.981Z" fill="#231F20"/>
<path d="M621.675 360.151H154.034C145.722 360.151 138.519 353.502 138.519 344.636C138.519 337.433 143.506 331.339 150.709 329.676L304.743 293.661H470.966L625 329.676C632.203 331.339 637.19 337.433 637.19 344.636C637.19 353.502 630.541 360.151 621.675 360.151Z" fill="white"/>
<path d="M459.885 271.498H315.824V232.713C315.824 192.819 347.961 160.683 387.854 160.683C427.748 160.683 459.885 192.819 459.885 232.713V271.498Z" fill="#C7EAFB"/>
<path d="M459.885 277.039H315.824C312.5 277.039 310.284 274.823 310.284 271.498V232.713C310.284 190.049 345.191 155.142 387.855 155.142C430.519 155.142 465.425 190.049 465.425 232.713V271.498C465.425 274.823 463.209 277.039 459.885 277.039ZM321.365 265.957H454.344V232.713C454.344 196.144 424.424 166.223 387.855 166.223C351.285 166.223 321.365 196.144 321.365 232.713V265.957Z" fill="#231F20"/>
<path d="M349.069 196.144C348.515 196.144 347.407 195.589 346.853 195.589C345.745 194.481 345.745 192.819 346.853 191.711C357.934 181.183 372.34 175.089 387.854 175.089C389.517 175.089 390.625 176.197 390.625 177.859C390.625 179.521 389.517 180.629 387.854 180.629C374.003 180.629 360.705 186.17 350.731 195.589C350.731 195.589 349.623 196.144 349.069 196.144Z" fill="#231F20"/>
<path d="M335.217 218.861H334.663C333.001 218.307 332.447 216.644 333.001 215.536C334.109 212.766 334.663 209.996 336.325 207.779C336.879 206.671 338.542 205.563 340.204 206.671C341.312 207.225 342.42 208.887 341.312 210.55C340.204 212.766 339.096 215.536 338.542 217.753C337.433 218.307 336.325 218.861 335.217 218.861Z" fill="#231F20"/>
<path d="M470.966 293.661H304.743V282.58C304.743 276.485 309.729 271.498 315.824 271.498H459.885C465.979 271.498 470.966 276.485 470.966 282.58V293.661Z" fill="white"/>
<path d="M526.374 227.172C526.374 230.496 524.158 232.713 520.833 232.713C517.509 232.713 515.292 230.496 515.292 227.172C515.292 223.847 517.509 221.631 520.833 221.631C524.158 221.631 526.374 223.847 526.374 227.172Z" fill="#231F20"/>
<path d="M526.374 263.187C526.374 264.849 525.266 265.957 523.604 265.957C521.941 265.957 520.833 264.849 520.833 263.187C520.833 261.525 521.941 260.417 523.604 260.417C525.266 260.417 526.374 261.525 526.374 263.187Z" fill="#231F20"/>
<path d="M565.159 213.32C565.159 214.982 564.051 216.09 562.389 216.09C560.727 216.09 559.619 214.982 559.619 213.32C559.619 211.658 560.727 210.55 562.389 210.55C564.051 210.55 565.159 211.658 565.159 213.32Z" fill="#231F20"/>
<path d="M216.09 285.35C216.09 287.012 214.982 288.121 213.32 288.121C211.658 288.121 210.55 287.012 210.55 285.35C210.55 283.688 211.658 282.58 213.32 282.58C214.982 282.58 216.09 283.688 216.09 285.35Z" fill="#231F20"/>
<path d="M526.374 163.453C526.374 165.115 525.266 166.223 523.604 166.223C521.941 166.223 520.833 165.115 520.833 163.453C520.833 161.791 521.941 160.683 523.604 160.683C525.266 160.683 526.374 161.791 526.374 163.453Z" fill="#231F20"/>
<path d="M277.039 191.157C277.039 192.819 275.931 193.927 274.269 193.927C272.606 193.927 271.498 192.819 271.498 191.157C271.498 189.495 272.606 188.386 274.269 188.386C275.931 188.386 277.039 189.495 277.039 191.157Z" fill="#231F20"/>
<path d="M343.528 124.668C343.528 126.33 342.42 127.438 340.758 127.438C339.096 127.438 337.988 126.33 337.988 124.668C337.988 123.005 339.096 121.897 340.758 121.897C342.42 121.897 343.528 123.005 343.528 124.668Z" fill="#231F20"/>
<path d="M227.172 191.157C227.172 192.819 226.064 193.927 224.402 193.927C222.739 193.927 221.631 192.819 221.631 191.157C221.631 189.495 222.739 188.386 224.402 188.386C226.064 188.386 227.172 189.495 227.172 191.157Z" fill="#231F20"/>
<path d="M249.335 263.187C249.335 264.849 248.227 265.957 246.565 265.957C244.902 265.957 243.794 264.849 243.794 263.187C243.794 261.525 244.902 260.417 246.565 260.417C248.227 260.417 249.335 261.525 249.335 263.187Z" fill="#231F20"/>
<path d="M454.344 144.06C454.344 147.385 452.128 149.601 448.803 149.601C445.479 149.601 443.262 147.385 443.262 144.06C443.262 140.736 445.479 138.519 448.803 138.519C452.128 138.519 454.344 140.736 454.344 144.06Z" fill="#231F20"/>
<path d="M243.794 227.172C243.794 230.496 241.578 232.713 238.254 232.713C234.929 232.713 232.713 230.496 232.713 227.172C232.713 223.847 234.929 221.631 238.254 221.631C241.578 221.631 243.794 223.847 243.794 227.172Z" fill="#231F20"/>
<path d="M459.885 265.957H315.824C306.405 265.957 299.202 273.16 299.202 282.58V293.661C299.202 296.986 301.418 299.202 304.743 299.202H470.966C474.291 299.202 476.507 296.986 476.507 293.661V282.58C476.507 273.16 469.304 265.957 459.885 265.957ZM346.299 277.039H362.921V288.12H346.299V277.039ZM340.758 288.12H324.136V277.039H340.758V288.12ZM368.462 277.039H385.084V288.12H368.462V277.039ZM390.625 277.039H407.247V288.12H390.625V277.039ZM412.788 277.039H429.41V288.12H412.788V277.039ZM434.951 277.039H451.573V288.12H434.951V277.039ZM310.284 282.58C310.284 279.255 312.5 277.039 315.824 277.039H318.595V288.12H310.284V282.58ZM465.425 288.12H457.114V277.039H459.885C463.209 277.039 465.425 279.255 465.425 282.58V288.12Z" fill="#231F20"/>
<path d="M421.099 271.498H354.61V232.713C354.61 214.428 369.57 199.468 387.855 199.468C406.139 199.468 421.099 214.428 421.099 232.713V271.498Z" fill="#BBD868"/>
<path d="M421.099 277.039H354.61C351.285 277.039 349.069 274.823 349.069 271.498V232.713C349.069 211.104 366.245 193.927 387.855 193.927C409.464 193.927 426.64 211.104 426.64 232.713V271.498C426.64 274.823 424.424 277.039 421.099 277.039ZM360.151 265.957H415.558V232.713C415.558 217.199 403.369 205.009 387.855 205.009C372.34 205.009 360.151 217.199 360.151 232.713V265.957Z" fill="#231F20"/>
<path d="M387.855 249.335C397.035 249.335 404.477 241.893 404.477 232.713C404.477 223.532 397.035 216.09 387.855 216.09C378.674 216.09 371.232 223.532 371.232 232.713C371.232 241.893 378.674 249.335 387.855 249.335Z" fill="white"/>
<path d="M387.854 252.105C377.327 252.105 368.462 243.24 368.462 232.713C368.462 222.185 377.327 213.32 387.854 213.32C398.382 213.32 407.247 222.185 407.247 232.713C407.247 243.24 398.382 252.105 387.854 252.105ZM387.854 218.861C380.097 218.861 374.003 224.956 374.003 232.713C374.003 240.47 380.097 246.565 387.854 246.565C395.612 246.565 401.706 240.47 401.706 232.713C401.706 224.956 395.612 218.861 387.854 218.861Z" fill="#231F20"/>
<path d="M393.395 238.253C393.395 241.578 391.179 243.794 387.855 243.794C384.53 243.794 382.314 241.578 382.314 238.253C382.314 234.929 384.53 232.713 387.855 232.713C391.179 232.713 393.395 234.929 393.395 238.253Z" fill="#231F20"/>
<path d="M626.662 324.136L472.074 288.12C471.52 288.12 470.966 288.12 470.966 288.12H304.743C304.189 288.12 303.635 288.12 303.635 288.12L149.601 324.136C140.182 326.352 133.533 334.663 133.533 344.636C133.533 356.272 142.952 365.691 154.588 365.691H622.229C633.865 365.691 643.284 356.272 643.284 344.636C642.73 334.663 636.081 326.352 626.662 324.136ZM151.817 335.217L305.297 299.202H470.412L623.892 335.217C627.216 335.771 629.432 337.987 630.541 340.758H625C623.892 339.096 622.229 337.987 620.567 337.987C618.351 337.987 616.689 339.096 616.135 340.758H586.768C585.66 339.096 583.998 337.987 582.336 337.987C580.12 337.987 578.457 339.096 577.903 340.758H548.537C546.875 339.096 545.213 337.987 542.996 337.987C540.78 337.987 539.118 339.096 538.564 340.758H509.198C508.089 339.096 506.427 337.987 504.211 337.987C501.995 337.987 500.332 339.096 499.778 340.758H470.412C469.304 339.096 467.642 337.987 465.425 337.987C463.209 337.987 461.547 339.096 460.993 340.758H431.627C430.519 339.096 428.856 337.987 426.64 337.987C424.424 337.987 422.761 339.096 422.207 340.758H392.841C391.733 339.096 390.071 337.987 387.855 337.987C385.638 337.987 383.976 339.096 383.422 340.758H354.056C352.948 339.096 351.285 337.987 349.069 337.987C346.853 337.987 345.191 339.096 344.636 340.758H315.27C314.162 339.096 312.5 337.987 310.284 337.987C308.067 337.987 306.405 339.096 305.851 340.758H276.485C275.377 339.096 273.714 337.987 271.498 337.987C269.282 337.987 267.62 339.096 267.066 340.758H237.699C236.591 339.096 234.929 337.987 232.713 337.987C230.496 337.987 228.834 339.096 228.28 340.758H198.914C197.806 339.096 196.144 337.987 193.927 337.987C191.711 337.987 190.049 339.096 189.495 340.758H160.129C159.02 339.096 157.358 337.987 155.142 337.987C152.925 337.987 151.263 339.096 150.709 340.758H145.168C146.277 337.987 148.493 335.771 151.817 335.217ZM621.675 354.61H154.034C149.047 354.61 145.168 350.731 144.06 346.299H150.155C151.263 347.961 152.925 349.069 154.588 349.069C156.804 349.069 158.466 347.961 159.02 346.299H188.386C189.495 347.961 191.157 349.069 192.819 349.069C194.481 349.069 196.698 347.961 197.252 346.299H226.618C227.726 347.961 229.388 349.069 231.05 349.069C232.713 349.069 234.929 347.961 235.483 346.299H264.849C265.957 347.961 267.62 349.069 269.282 349.069C270.944 349.069 273.16 347.961 273.714 346.299H303.081C304.189 347.961 305.851 349.069 307.513 349.069C309.175 349.069 311.392 347.961 311.946 346.299H341.312C342.42 347.961 344.082 349.069 345.745 349.069C347.407 349.069 349.623 347.961 350.177 346.299H379.543C380.652 347.961 382.314 349.069 383.976 349.069C386.192 349.069 387.855 347.961 388.409 346.299H417.775C418.883 347.961 420.545 349.069 422.207 349.069C424.424 349.069 426.086 347.961 426.64 346.299H456.006C457.114 347.961 458.776 349.069 460.439 349.069C462.655 349.069 464.317 347.961 464.871 346.299H494.237C495.346 347.961 497.008 349.069 498.67 349.069C500.886 349.069 502.549 347.961 503.103 346.299H532.469C533.577 347.961 535.239 349.069 536.901 349.069C539.118 349.069 540.78 347.961 541.334 346.299H570.7C571.808 347.961 573.471 349.069 575.133 349.069C577.349 349.069 579.011 347.961 579.565 346.299H608.932C610.04 347.961 611.702 349.069 613.364 349.069C615.581 349.069 617.243 347.961 617.797 346.299H623.892C630.541 350.731 626.662 354.61 621.675 354.61Z" fill="#231F20"/>
<path d="M648.271 651.042H565.159C563.497 651.042 562.389 649.933 562.389 648.271C562.389 646.609 563.497 645.501 565.159 645.501H648.271C649.933 645.501 651.042 646.609 651.042 648.271C651.042 649.933 649.933 651.042 648.271 651.042Z" fill="#231F20"/>
<path d="M210.55 651.042H127.438C125.776 651.042 124.668 649.933 124.668 648.271C124.668 646.609 125.776 645.501 127.438 645.501H210.55C212.212 645.501 213.32 646.609 213.32 648.271C213.32 649.933 212.212 651.042 210.55 651.042Z" fill="#231F20"/>
<path d="M609.486 293.661C618.666 293.661 626.108 286.219 626.108 277.039C626.108 267.859 618.666 260.417 609.486 260.417C600.305 260.417 592.863 267.859 592.863 277.039C592.863 286.219 600.305 293.661 609.486 293.661Z" fill="white"/>
<path d="M609.486 296.432C607.823 296.432 606.715 295.324 606.715 293.661C606.715 285.904 600.62 279.809 592.863 279.809C591.201 279.809 590.093 278.701 590.093 277.039C590.093 275.377 591.201 274.269 592.863 274.269C600.62 274.269 606.715 268.174 606.715 260.417C606.715 258.754 607.823 257.646 609.486 257.646C611.148 257.646 612.256 258.754 612.256 260.417C612.256 268.174 618.351 274.269 626.108 274.269C627.77 274.269 628.878 275.377 628.878 277.039C628.878 278.701 627.77 279.809 626.108 279.809C618.351 279.809 612.256 285.904 612.256 293.661C612.256 295.324 611.148 296.432 609.486 296.432ZM602.837 277.039C605.607 278.701 607.823 280.918 609.486 283.688C611.148 280.918 613.364 278.701 616.135 277.039C613.364 275.377 611.148 273.16 609.486 270.39C607.823 273.16 605.607 275.377 602.837 277.039Z" fill="#231F20"/>
<path d="M199.468 265.957C202.528 265.957 205.009 263.477 205.009 260.417C205.009 257.357 202.528 254.876 199.468 254.876C196.408 254.876 193.927 257.357 193.927 260.417C193.927 263.477 196.408 265.957 199.468 265.957Z" fill="white"/>
<path d="M199.468 268.728C197.806 268.728 196.698 267.62 196.698 265.957C196.698 264.295 195.589 263.187 193.927 263.187C192.265 263.187 191.157 262.079 191.157 260.417C191.157 258.754 192.265 257.646 193.927 257.646C195.589 257.646 196.698 256.538 196.698 254.876C196.698 253.214 197.806 252.105 199.468 252.105C201.13 252.105 202.238 253.214 202.238 254.876C202.238 256.538 203.347 257.646 205.009 257.646C206.671 257.646 207.779 258.754 207.779 260.417C207.779 262.079 206.671 263.187 205.009 263.187C203.347 263.187 202.238 264.295 202.238 265.957C202.238 267.62 201.13 268.728 199.468 268.728Z" fill="#231F20"/>
<path d="M493.129 177.305C496.189 177.305 498.67 174.824 498.67 171.764C498.67 168.704 496.189 166.223 493.129 166.223C490.069 166.223 487.589 168.704 487.589 171.764C487.589 174.824 490.069 177.305 493.129 177.305Z" fill="white"/>
<path d="M493.129 180.075C491.467 180.075 490.359 178.967 490.359 177.305C490.359 175.643 489.251 174.535 487.589 174.535C485.926 174.535 484.818 173.426 484.818 171.764C484.818 170.102 485.926 168.994 487.589 168.994C489.251 168.994 490.359 167.886 490.359 166.223C490.359 164.561 491.467 163.453 493.129 163.453C494.792 163.453 495.9 164.561 495.9 166.223C495.9 167.886 497.008 168.994 498.67 168.994C500.332 168.994 501.44 170.102 501.44 171.764C501.44 173.426 500.332 174.535 498.67 174.535C497.008 174.535 495.9 175.643 495.9 177.305C495.9 178.967 494.792 180.075 493.129 180.075Z" fill="#231F20"/>
<path d="M559.619 249.335C562.679 249.335 565.159 246.854 565.159 243.794C565.159 240.734 562.679 238.253 559.619 238.253C556.559 238.253 554.078 240.734 554.078 243.794C554.078 246.854 556.559 249.335 559.619 249.335Z" fill="white"/>
<path d="M559.619 252.105C557.956 252.105 556.848 250.997 556.848 249.335C556.848 247.673 555.74 246.565 554.078 246.565C552.416 246.565 551.307 245.456 551.307 243.794C551.307 242.132 552.416 241.024 554.078 241.024C555.74 241.024 556.848 239.916 556.848 238.253C556.848 236.591 557.956 235.483 559.619 235.483C561.281 235.483 562.389 236.591 562.389 238.253C562.389 239.916 563.497 241.024 565.159 241.024C566.822 241.024 567.93 242.132 567.93 243.794C567.93 245.456 566.822 246.565 565.159 246.565C563.497 246.565 562.389 247.673 562.389 249.335C562.389 250.997 561.281 252.105 559.619 252.105Z" fill="#231F20"/>
<path d="M260.417 160.683C269.597 160.683 277.039 153.241 277.039 144.06C277.039 134.88 269.597 127.438 260.417 127.438C251.236 127.438 243.794 134.88 243.794 144.06C243.794 153.241 251.236 160.683 260.417 160.683Z" fill="white"/>
<path d="M260.417 163.453C258.754 163.453 257.646 162.345 257.646 160.683C257.646 152.926 251.551 146.831 243.794 146.831C242.132 146.831 241.024 145.722 241.024 144.06C241.024 142.398 242.132 141.29 243.794 141.29C251.551 141.29 257.646 135.195 257.646 127.438C257.646 125.776 258.754 124.668 260.417 124.668C262.079 124.668 263.187 125.776 263.187 127.438C263.187 135.195 269.282 141.29 277.039 141.29C278.701 141.29 279.809 142.398 279.809 144.06C279.809 145.722 278.701 146.831 277.039 146.831C269.282 146.831 263.187 152.926 263.187 160.683C263.187 162.345 262.079 163.453 260.417 163.453ZM253.768 144.06C256.538 145.722 258.754 147.939 260.417 150.709C262.079 147.939 264.295 145.722 267.066 144.06C264.295 142.398 262.079 140.182 260.417 137.411C258.754 140.182 256.538 142.398 253.768 144.06Z" fill="#231F20"/>
<path d="M503.657 357.934C503.103 355.718 500.886 354.61 498.67 354.61H277.039C274.823 354.61 272.606 355.718 272.052 357.934C270.944 360.151 271.498 362.367 273.16 364.029C303.635 393.949 344.636 410.018 387.855 410.018C431.073 410.018 472.074 393.949 502.549 364.029C504.211 362.367 504.765 360.151 503.657 357.934ZM337.433 390.625H438.276C422.207 396.166 405.031 398.936 387.855 398.936C370.124 398.936 353.502 396.166 337.433 390.625ZM452.128 385.084H323.581C312.5 380.097 301.418 373.448 291.999 365.691H484.264C474.291 373.448 463.763 380.097 452.128 385.084Z" fill="#231F20"/>
</svg>
